{"title":"The Ant Bully (2006) 720p BRRip X264 Hindi R@J@T","uid":8265849,"size":919864344,"categoryP":"video","categoryS":"hd___movies","magnet":"?xt=urn:btih:7f072ca2128722699421cadfd15a07b312ded5c3&amp;dn=The+Ant+Bully+%282006%29+720p+BRRip+X264+Hindi+R%40J%40T&amp;tr=udp%3A%2F%2Ftracker.openbittorrent.com%3A80&amp;tr=udp%3A%2F%2Fopen.demonii.com%3A1337&amp;tr=udp%3A%2F%2Ftracker.coppersurfer.tk%3A6969&amp;tr=udp%3A%2F%2Fexodus.desync.com%3A6969","seeders":2,"leechers":2,"uploader":"rajat6393","files":9,"time":1363499712,"description":"IMDB Rating:5.9/10.0\n\n GENRE: Animation | Adventure | Comedy\n\n\n General \n Unique ID : 210793289334021176633165647473414290367 (0x9E954F909DE73B638491EB42F410BBBF) \n Complete name : The Ant Bully (2006)\n Format : Matroska \n Format version : Version 4 / Version 2 \n File size : 853 MiB \n Duration : 1h 29mn \n Overall bit rate : 1 339 Kbps \n Movie name : The Ant Bully (2006) 720p BRRip X264 Hindi R@J@T \n Encoded date : UTC 2013-03-12 04:28:56 \n Writing application : mkvmerge v6.0.0 ('Coming Up For Air') built on Jan 20 2013 09:52:00 \n Writing library : libebml v1.3.0 + libmatroska v1.4.0 \n\n Video \n ID : 1 \n Format : AVC \n Format/Info : Advanced Video Codec \n Format profile : &lt;a class=&quot;__cf_email__&quot; href=&quot;/cdn-cgi/l/email-protection&quot; data-cfemail=&quot;0a476b63644a463f243b&quot;&gt;[email&amp;#160;protected]&lt;/a&gt;&lt;script cf-hash='f9e31' type=&quot;text/javascript&quot;&gt;\n/* &lt;![CDATA[ */!function(){try{var t=&quot;currentScript&quot;in document?document.currentScript:function(){for(var t=document.getElementsByTagName(&quot;script&quot;),e=t.length;e--;)if(t[e].getAttribute(&quot;cf-hash&quot;))return t[e]}();if(t&amp;&amp;t.previousSibling){var e,r,n,i,c=t.previousSibling,a=c.getAttribute(&quot;data-cfemail&quot;);if(a){for(e=&quot;&quot;,r=parseInt(a.substr(0,2),16),n=2;a.length-n;n+=2)i=parseInt(a.substr(n,2),16)^r,e+=String.fromCharCode(i);e=document.createTextNode(e),c.parentNode.replaceChild(e,c)}}}catch(u){}}();/* ]]&gt; */&lt;/script&gt; \n Format settings, CABAC : Yes \n Format settings, ReFrames : 1 frame \n Codec ID : V_MPEG4/ISO/AVC \n Duration : 1h 29mn \n Bit rate : 1 184 Kbps \n Width : 1 280 pixels \n Height : 720 pixels \n Display aspect ratio : 16:9 \n Frame rate mode : Constant \n Frame rate : 23.976 fps \n Color space : YUV \n Chroma subsampling : 4:2:0 \n Bit depth : 8 bits \n Scan type : Progressive \n Bits/(Pixel*Frame) : 0.054 \n Stream size : 754 MiB (88%) \n Title : R@J@T \n Language : English \n Default : Yes \n Forced : No \n\n Audio \n ID : 2 \n Format : MPEG Audio \n Format version : Version 1 \n Format profile : Layer 3 \n Codec ID : A_MPEG/L3 \n Codec ID/Hint : MP3 \n Duration : 1h 29mn \n Bit rate mode : Constant \n Bit rate : 128 Kbps \n Channel(s) : 2 channels \n Sampling rate : 48.0 KHz \n Compression mode : Lossy \n Stream size : 81.5 MiB (10%) \n Title : R@J@T \n Writing library : LAMELAME_MAJOR_VERSI \n Language : Hindi \n Default : Yes \n Forced : No \n\n\n\n\n\n SPECIAL NOTE: CHECK SCREEN SHOTS (INSIDE THE TORRENT) AND SAMPLE BEFORE DOWNLOAD FOR SATISFACTION.\n\n\n IF YOU LIKE MY WORK PLEASE SEED THE TORRENT\n\n\n\n THANKS \n R@J@T","torrent":{"xt":"urn:btih:7f072ca2128722699421cadfd15a07b312ded5c3","amp;dn":"The+Ant+Bully+%282006%29+720p+BRRip+X264+Hindi+R%40J%40T","amp;tr":["udp%3A%2F%2Ftracker.openbittorrent.com%3A80","udp%3A%2F%2Fopen.demonii.com%3A1337","udp%3A%2F%2Ftracker.coppersurfer.tk%3A6969","udp%3A%2F%2Fexodus.desync.com%3A6969"],"infoHash":"7f072ca2128722699421cadfd15a07b312ded5c3","infoHashBuffer":{"type":"Buffer","data":[127,7,44,162,18,135,34,105,148,33,202,223,209,90,7,179,18,222,213,195]},"announce":[],"urlList":[]}}